# xmcd
#
# Track frame offsets: 
#        180
#        18989
#        37064
#        53612
#        70964
#        92087
#        108433
#        130439
#        145257
#        181708
#        195690
#        212008
#        225837
#
# Disc length: 3164 seconds
#
# Revision: 0
# Processed by: cddbd v1.5.2PL0 Copyright (c) Steve Scherf et al.
# Submitted via: ExactAudioCopy v0.99pb3
#
DISCID=af0c5a0d
DTITLE=Dynamic Blues Band - One More Kiss and One More Beer
DYEAR=1997
DGENRE=Blues
TTITLE0=I Will Change My Life
TTITLE1=Tequila Song
TTITLE2=Tonight
TTITLE3=Jump and Jive
TTITLE4=Trust Me Baby
TTITLE5=One More Kiss and One More Beer
TTITLE6=Bad Habits
TTITLE7=Mary
TTITLE8=Why Didn't You This Time
TTITLE9=Chair
TTITLE10=Don't Wait Up For Me
TTITLE11=Long Tall Women
TTITLE12=Five Days A Week
EXTD=
EXTT0=
EXTT1=
EXTT2=
EXTT3=
EXTT4=
EXTT5=
EXTT6=
EXTT7=
EXTT8=
EXTT9=
EXTT10=
EXTT11=
EXTT12=
PLAYORDER=
